# xmcd
#
# Track frame offsets:
#	150
#	15013
#	22258
#	34621
#	44873
#	58418
#	62276
#	73078
#	92443
#	104633
#	128518
#	141803
#	161941
#	179053
#
# Disc length: 2463 seconds
#
# Revision: 14
# Processed by: cddbd v1.5.2PL0 Copyright (c) Steve Scherf et al.
# Submitted via: audiograbber 1.83.01
#
DISCID=c8099d0e
DTITLE=Soundtrack - Tarzan (Orig. Phil Collins)
DYEAR=1999
DGENRE=Soundtrack
TTITLE0=Two worlds
TTITLE1=You'll be in my heart
TTITLE2=Son of man
TTITLE3=Trashin' the camp
TTITLE4=Strangers like me
TTITLE5=Two worlds (Reprise)
TTITLE6=Trashin' the camp (Phil Collins and 'N Sync version)
TTITLE7=You'll be in my heart (Phil version)
TTITLE8=Two worlds (Phil version)
TTITLE9=A wondrous place
TTITLE10=Moves like an ape, looks like a man
TTITLE11=The Gorillas 
TTITLE12=One family
TTITLE13=Two worlds (Finale)
EXTD=YEAR: 1999
EXTT0=
EXTT1=
EXTT2=
EXTT3=
EXTT4=
EXTT5=
EXTT6=
EXTT7=
EXTT8=
EXTT9=
EXTT10=
EXTT11=
EXTT12=
EXTT13=
PLAYORDER=
